<svg width="323" height="321" viewBox="0 0 323 321" xmlns="http://www.w3.org/2000/svg">
<path d="M320.729 202.59C317.702 228.958 306.175 250.891 286.147 268.392C266.119 285.892 244.229 299.426 220.475 308.993C196.721 318.559 171.803 322.41 145.721 320.543C119.638 318.676 94.9533 310.976 71.6654 297.442C48.3775 283.909 30.4459 265.008 17.8704 240.741C5.29493 216.474 -0.643481 190.69 0.0551555 163.389C0.753792 136.089 8.67168 111.588 23.8088 89.8878C38.9459 68.1873 56.5283 49.0536 76.5559 32.4865C96.5835 15.9195 119.755 5.65262 146.07 1.68587C172.386 -2.28088 197.886 0.752516 222.571 10.7861C247.256 20.8196 269.03 35.5199 287.894 54.887C306.757 74.2541 317.702 97.1213 320.729 123.489C323.757 149.856 323.757 176.223 320.729 202.59Z" fill="#BFBFBF"/>
</svg>
